<svg width="200" height="80" viewBox="0 0 200 80" fill="none" xmlns="http://www.w3.org/2000/svg">
<path d="M82.92 43.04C82.92 40.8 83.36 38.84 84.24 37.16C85.1467 35.4533 86.3867 34.1467 87.96 33.24C89.56 32.3067 91.36 31.84 93.36 31.84C95.44 31.84 97.2267 32.32 98.72 33.28C100.24 34.24 101.333 35.4667 102 36.96V32.16H104.8V54H102V49.16C101.307 50.6533 100.2 51.8933 98.68 52.88C97.1867 53.84 95.4 54.32 93.32 54.32C91.3467 54.32 89.56 53.8533 87.96 52.92C86.3867 51.9867 85.1467 50.6667 84.24 48.96C83.36 47.2533 82.92 45.28 82.92 43.04ZM102 43.08C102 41.32 101.64 39.7733 100.92 38.44C100.2 37.1067 99.2133 36.08 97.96 35.36C96.7333 34.64 95.3733 34.28 93.88 34.28C92.3333 34.28 90.9467 34.6267 89.72 35.32C88.4933 36.0133 87.52 37.0267 86.8 38.36C86.1067 39.6667 85.76 41.2267 85.76 43.04C85.76 44.8267 86.1067 46.4 86.8 47.76C87.52 49.0933 88.4933 50.12 89.72 50.84C90.9467 51.5333 92.3333 51.88 93.88 51.88C95.3733 51.88 96.7333 51.52 97.96 50.8C99.2133 50.08 100.2 49.0533 100.92 47.72C101.64 46.3867 102 44.84 102 43.08ZM130.952 41.96C130.952 42.92 130.926 43.6533 130.872 44.16H112.752C112.832 45.8133 113.232 47.2267 113.952 48.4C114.672 49.5733 115.619 50.4667 116.792 51.08C117.966 51.6667 119.246 51.96 120.632 51.96C122.446 51.96 123.966 51.52 125.192 50.64C126.446 49.76 127.272 48.5733 127.672 47.08H130.632C130.099 49.2133 128.952 50.96 127.192 52.32C125.459 53.6533 123.272 54.32 120.632 54.32C118.579 54.32 116.739 53.8667 115.112 52.96C113.486 52.0267 112.206 50.72 111.272 49.04C110.366 47.3333 109.912 45.3467 109.912 43.08C109.912 40.8133 110.366 38.8267 111.272 37.12C112.179 35.4133 113.446 34.1067 115.072 33.2C116.699 32.2933 118.552 31.84 120.632 31.84C122.712 31.84 124.526 32.2933 126.072 33.2C127.646 34.1067 128.846 35.3333 129.672 36.88C130.526 38.4 130.952 40.0933 130.952 41.96ZM128.112 41.88C128.139 40.2533 127.806 38.8667 127.112 37.72C126.446 36.5733 125.526 35.7067 124.352 35.12C123.179 34.5333 121.899 34.24 120.512 34.24C118.432 34.24 116.659 34.9067 115.192 36.24C113.726 37.5733 112.912 39.4533 112.752 41.88H128.112ZM145.235 31.84C147.288 31.84 149.075 32.32 150.595 33.28C152.115 34.24 153.208 35.4533 153.875 36.92V32.16H156.675V54.56C156.675 56.56 156.235 58.3333 155.355 59.88C154.502 61.4267 153.302 62.6133 151.755 63.44C150.208 64.2933 148.448 64.72 146.475 64.72C143.675 64.72 141.342 64.0533 139.475 62.72C137.635 61.3867 136.488 59.5733 136.035 57.28H138.795C139.275 58.8 140.182 60.0133 141.515 60.92C142.875 61.8267 144.528 62.28 146.475 62.28C147.888 62.28 149.155 61.9733 150.275 61.36C151.395 60.7733 152.275 59.8933 152.915 58.72C153.555 57.5467 153.875 56.16 153.875 54.56V49.16C153.182 50.6533 152.075 51.8933 150.555 52.88C149.062 53.84 147.288 54.32 145.235 54.32C143.235 54.32 141.435 53.8533 139.835 52.92C138.262 51.9867 137.022 50.6667 136.115 48.96C135.235 47.2533 134.795 45.28 134.795 43.04C134.795 40.8 135.235 38.84 136.115 37.16C137.022 35.4533 138.262 34.1467 139.835 33.24C141.435 32.3067 143.235 31.84 145.235 31.84ZM153.875 43.08C153.875 41.32 153.515 39.7733 152.795 38.44C152.075 37.1067 151.088 36.08 149.835 35.36C148.608 34.64 147.248 34.28 145.755 34.28C144.208 34.28 142.822 34.6267 141.595 35.32C140.368 36.0133 139.395 37.0267 138.675 38.36C137.982 39.6667 137.635 41.2267 137.635 43.04C137.635 44.8267 137.982 46.4 138.675 47.76C139.395 49.0933 140.368 50.12 141.595 50.84C142.822 51.5333 144.208 51.88 145.755 51.88C147.248 51.88 148.608 51.52 149.835 50.8C151.088 50.08 152.075 49.0533 152.795 47.72C153.515 46.3867 153.875 44.84 153.875 43.08ZM164.467 28.04C163.907 28.04 163.427 27.84 163.027 27.44C162.627 27.04 162.427 26.5467 162.427 25.96C162.427 25.3733 162.627 24.8933 163.027 24.52C163.427 24.12 163.907 23.92 164.467 23.92C165.027 23.92 165.507 24.12 165.907 24.52C166.307 24.8933 166.507 25.3733 166.507 25.96C166.507 26.5467 166.307 27.04 165.907 27.44C165.507 27.84 165.027 28.04 164.467 28.04ZM165.867 32.16V54H163.067V32.16H165.867ZM175.008 24.4V54H172.208V24.4H175.008ZM201.108 41.96C201.108 42.92 201.082 43.6533 201.028 44.16H182.908C182.988 45.8133 183.388 47.2267 184.108 48.4C184.828 49.5733 185.775 50.4667 186.948 51.08C188.122 51.6667 189.402 51.96 190.788 51.96C192.602 51.96 194.122 51.52 195.348 50.64C196.602 49.76 197.428 48.5733 197.828 47.08H200.788C200.255 49.2133 199.108 50.96 197.348 52.32C195.615 53.6533 193.428 54.32 190.788 54.32C188.735 54.32 186.895 53.8667 185.268 52.96C183.642 52.0267 182.362 50.72 181.428 49.04C180.522 47.3333 180.068 45.3467 180.068 43.08C180.068 40.8133 180.522 38.8267 181.428 37.12C182.335 35.4133 183.602 34.1067 185.228 33.2C186.855 32.2933 188.708 31.84 190.788 31.84C192.868 31.84 194.682 32.2933 196.228 33.2C197.802 34.1067 199.002 35.3333 199.828 36.88C200.682 38.4 201.108 40.0933 201.108 41.96ZM198.268 41.88C198.295 40.2533 197.962 38.8667 197.268 37.72C196.602 36.5733 195.682 35.7067 194.508 35.12C193.335 34.5333 192.055 34.24 190.668 34.24C188.588 34.24 186.815 34.9067 185.348 36.24C183.882 37.5733 183.068 39.4533 182.908 41.88H198.268Z" fill="#8C93FF"/>
<path fill-rule="evenodd" clip-rule="evenodd" d="M41.5125 50.2523C40.1765 52.5758 36.8242 52.5758 35.4882 50.2523L34.0931 47.8261L38.4905 40.1784L42.9026 47.8347L41.5125 50.2523ZM44.6319 44.8271L38.2491 33.7511L31.9304 22.7862C28.7503 17.2678 22.132 15.7159 17.0181 18.1305L13.9257 12.7523C10.6651 7.08172 14.7535 5.0921e-06 21.2856 4.52104e-06L55.715 0C62.2517 0 66.3421 7.07035 63.0838 12.737L44.6319 44.8271ZM24.2075 59L28.95 50.7523L36.7583 37.1725L35.6498 35.249L29.3311 24.2841C26.061 18.6094 17.8719 18.6095 14.6018 24.2841L1.94 46.256C-1.32554 51.9226 2.7644 59 9.30464 59H21.9664H24.2075ZM31.5507 52.2477L32.3628 50.8353L32.8875 51.7477C35.377 56.0773 41.6237 56.0773 44.1132 51.7477L53.6378 35.1831L54.825 37.2477L63.45 52.2477L72.0838 67.263C75.3421 72.9297 71.2517 80 64.7151 80H30.2856C23.749 80 19.6586 72.9297 22.9169 67.263L31.5507 52.2477Z" fill="#8C93FF"/>
</svg>
