<svg width="116" height="138" viewBox="0 0 116 138" fill="none" xmlns="http://www.w3.org/2000/svg">
<path d="M1.824 112.088C1.824 109.96 2.242 108.098 3.078 106.502C3.93933 104.881 5.11733 103.639 6.612 102.778C8.132 101.891 9.842 101.448 11.742 101.448C13.718 101.448 15.4153 101.904 16.834 102.816C18.278 103.728 19.3167 104.893 19.95 106.312V101.752H22.61V122.5H19.95V117.902C19.2913 119.321 18.24 120.499 16.796 121.436C15.3773 122.348 13.68 122.804 11.704 122.804C9.82933 122.804 8.132 122.361 6.612 121.474C5.11733 120.587 3.93933 119.333 3.078 117.712C2.242 116.091 1.824 114.216 1.824 112.088ZM19.95 112.126C19.95 110.454 19.608 108.985 18.924 107.718C18.24 106.451 17.3027 105.476 16.112 104.792C14.9467 104.108 13.6547 103.766 12.236 103.766C10.7667 103.766 9.44933 104.095 8.284 104.754C7.11867 105.413 6.194 106.375 5.51 107.642C4.85133 108.883 4.522 110.365 4.522 112.088C4.522 113.785 4.85133 115.28 5.51 116.572C6.194 117.839 7.11867 118.814 8.284 119.498C9.44933 120.157 10.7667 120.486 12.236 120.486C13.6547 120.486 14.9467 120.144 16.112 119.46C17.3027 118.776 18.24 117.801 18.924 116.534C19.608 115.267 19.95 113.798 19.95 112.126ZM47.4546 111.062C47.4546 111.974 47.4292 112.671 47.3786 113.152H30.1646C30.2406 114.723 30.6206 116.065 31.3046 117.18C31.9886 118.295 32.8879 119.143 34.0026 119.726C35.1172 120.283 36.3332 120.562 37.6506 120.562C39.3732 120.562 40.8172 120.144 41.9826 119.308C43.1732 118.472 43.9586 117.345 44.3386 115.926H47.1506C46.6439 117.953 45.5546 119.612 43.8826 120.904C42.2359 122.171 40.1586 122.804 37.6506 122.804C35.6999 122.804 33.9519 122.373 32.4066 121.512C30.8612 120.625 29.6452 119.384 28.7586 117.788C27.8972 116.167 27.4666 114.279 27.4666 112.126C27.4666 109.973 27.8972 108.085 28.7586 106.464C29.6199 104.843 30.8232 103.601 32.3686 102.74C33.9139 101.879 35.6746 101.448 37.6506 101.448C39.6266 101.448 41.3492 101.879 42.8186 102.74C44.3132 103.601 45.4532 104.767 46.2386 106.236C47.0492 107.68 47.4546 109.289 47.4546 111.062ZM44.7566 110.986C44.7819 109.441 44.4652 108.123 43.8066 107.034C43.1732 105.945 42.2992 105.121 41.1846 104.564C40.0699 104.007 38.8539 103.728 37.5366 103.728C35.5606 103.728 33.8759 104.361 32.4826 105.628C31.0892 106.895 30.3166 108.681 30.1646 110.986H44.7566ZM61.0233 101.448C62.9739 101.448 64.6713 101.904 66.1153 102.816C67.5593 103.728 68.5979 104.881 69.2313 106.274V101.752H71.8913V123.032C71.8913 124.932 71.4733 126.617 70.6373 128.086C69.8266 129.555 68.6866 130.683 67.2173 131.468C65.7479 132.279 64.0759 132.684 62.2013 132.684C59.5413 132.684 57.3246 132.051 55.5513 130.784C53.8033 129.517 52.7139 127.795 52.2833 125.616H54.9053C55.3613 127.06 56.2226 128.213 57.4893 129.074C58.7813 129.935 60.3519 130.366 62.2013 130.366C63.5439 130.366 64.7473 130.075 65.8113 129.492C66.8753 128.935 67.7113 128.099 68.3193 126.984C68.9273 125.869 69.2313 124.552 69.2313 123.032V117.902C68.5726 119.321 67.5213 120.499 66.0773 121.436C64.6586 122.348 62.9739 122.804 61.0233 122.804C59.1233 122.804 57.4133 122.361 55.8933 121.474C54.3986 120.587 53.2206 119.333 52.3593 117.712C51.5233 116.091 51.1053 114.216 51.1053 112.088C51.1053 109.96 51.5233 108.098 52.3593 106.502C53.2206 104.881 54.3986 103.639 55.8933 102.778C57.4133 101.891 59.1233 101.448 61.0233 101.448ZM69.2313 112.126C69.2313 110.454 68.8893 108.985 68.2053 107.718C67.5213 106.451 66.5839 105.476 65.3933 104.792C64.2279 104.108 62.9359 103.766 61.5173 103.766C60.0479 103.766 58.7306 104.095 57.5653 104.754C56.3999 105.413 55.4753 106.375 54.7913 107.642C54.1326 108.883 53.8033 110.365 53.8033 112.088C53.8033 113.785 54.1326 115.28 54.7913 116.572C55.4753 117.839 56.3999 118.814 57.5653 119.498C58.7306 120.157 60.0479 120.486 61.5173 120.486C62.9359 120.486 64.2279 120.144 65.3933 119.46C66.5839 118.776 67.5213 117.801 68.2053 116.534C68.8893 115.267 69.2313 113.798 69.2313 112.126ZM79.2938 97.838C78.7618 97.838 78.3058 97.648 77.9258 97.268C77.5458 96.888 77.3558 96.4193 77.3558 95.862C77.3558 95.3047 77.5458 94.8487 77.9258 94.494C78.3058 94.114 78.7618 93.924 79.2938 93.924C79.8258 93.924 80.2818 94.114 80.6618 94.494C81.0418 94.8487 81.2318 95.3047 81.2318 95.862C81.2318 96.4193 81.0418 96.888 80.6618 97.268C80.2818 97.648 79.8258 97.838 79.2938 97.838ZM80.6238 101.752V122.5H77.9638V101.752H80.6238ZM89.3074 94.38V122.5H86.6474V94.38H89.3074ZM114.103 111.062C114.103 111.974 114.078 112.671 114.027 113.152H96.813C96.889 114.723 97.269 116.065 97.953 117.18C98.637 118.295 99.5363 119.143 100.651 119.726C101.766 120.283 102.982 120.562 104.299 120.562C106.022 120.562 107.466 120.144 108.631 119.308C109.822 118.472 110.607 117.345 110.987 115.926H113.799C113.292 117.953 112.203 119.612 110.531 120.904C108.884 122.171 106.807 122.804 104.299 122.804C102.348 122.804 100.6 122.373 99.055 121.512C97.5097 120.625 96.2937 119.384 95.407 117.788C94.5457 116.167 94.115 114.279 94.115 112.126C94.115 109.973 94.5457 108.085 95.407 106.464C96.2683 104.843 97.4717 103.601 99.017 102.74C100.562 101.879 102.323 101.448 104.299 101.448C106.275 101.448 107.998 101.879 109.467 102.74C110.962 103.601 112.102 104.767 112.887 106.236C113.698 107.68 114.103 109.289 114.103 111.062ZM111.405 110.986C111.43 109.441 111.114 108.123 110.455 107.034C109.822 105.945 108.948 105.121 107.833 104.564C106.718 104.007 105.502 103.728 104.185 103.728C102.209 103.728 100.524 104.361 99.131 105.628C97.7377 106.895 96.965 108.681 96.813 110.986H111.405Z" fill="#8C93FF"/>
<path fill-rule="evenodd" clip-rule="evenodd" d="M62.5125 50.7523C61.1765 53.0758 57.8242 53.0758 56.4882 50.7523L55.0931 48.3261L59.4905 40.6784L63.9026 48.3347L62.5125 50.7523ZM65.6319 45.3271L59.2491 34.2511L52.9304 23.2862C49.7503 17.7678 43.132 16.2159 38.0181 18.6305L34.9257 13.2523C31.6651 7.58172 35.7535 0.500005 42.2856 0.500005L76.715 0.5C83.2517 0.5 87.3421 7.57035 84.0838 13.237L65.6319 45.3271ZM45.2075 59.5L49.95 51.2523L57.7583 37.6725L56.6498 35.749L50.3311 24.7841C47.061 19.1094 38.8719 19.1095 35.6018 24.7841L22.94 46.756C19.6745 52.4226 23.7644 59.5 30.3046 59.5H42.9664H45.2075ZM52.5507 52.7477L53.3628 51.3353L53.8875 52.2477C56.377 56.5773 62.6237 56.5773 65.1132 52.2477L74.6378 35.6831L75.825 37.7477L84.45 52.7477L93.0838 67.763C96.3421 73.4297 92.2517 80.5 85.7151 80.5H51.2856C44.749 80.5 40.6586 73.4297 43.9169 67.763L52.5507 52.7477Z" fill="#8C93FF"/>
</svg>
