<svg width="85" height="85" viewBox="0 0 85 85" fill="none" xmlns="http://www.w3.org/2000/svg">
<path fill-rule="evenodd" clip-rule="evenodd" d="M46.7205 52.2523C45.3845 54.5758 42.0322 54.5758 40.6962 52.2523L39.3011 49.8261L43.6985 42.1784L48.1106 49.8347L46.7205 52.2523ZM49.84 46.8271L43.4571 35.7511L37.1384 24.7862C33.9583 19.2678 27.34 17.7159 22.2261 20.1305L19.1337 14.7523C15.8731 9.08172 19.9615 2.00001 26.4936 2L60.9231 2C67.4597 2 71.5501 9.07035 68.2918 14.737L49.84 46.8271ZM29.4155 61L34.158 52.7523L41.9663 39.1725L40.8578 37.249L34.5391 26.2841C31.269 20.6094 23.0799 20.6095 19.8098 26.2841L7.14801 48.256C3.88247 53.9226 7.97241 61 14.5127 61H27.1744H29.4155ZM36.7587 54.2477L37.5708 52.8353L38.0955 53.7477C40.585 58.0773 46.8317 58.0773 49.3212 53.7477L58.8458 37.1831L60.033 39.2477L68.658 54.2477L77.2918 69.263C80.5501 74.9297 76.4597 82 69.9231 82H35.4936C28.957 82 24.8666 74.9297 28.1249 69.263L36.7587 54.2477Z" fill="#8C93FF"/>
</svg>
